<svg width="53" height="27" viewBox="0 0 53 27" fill="none" xmlns="http://www.w3.org/2000/svg">
<rect x="0.5" y="0.5" width="52" height="26" rx="1.5" stroke="black"/>
<path d="M20.4588 12.3281H18.5923C18.5582 12.0866 18.4886 11.8722 18.3835 11.6847C18.2784 11.4943 18.1435 11.3324 17.9787 11.1989C17.8139 11.0653 17.6236 10.9631 17.4077 10.892C17.1946 10.821 16.9631 10.7855 16.7131 10.7855C16.2614 10.7855 15.8679 10.8977 15.5327 11.1222C15.1974 11.3437 14.9375 11.6676 14.7528 12.0938C14.5682 12.517 14.4759 13.0312 14.4759 13.6364C14.4759 14.2585 14.5682 14.7812 14.7528 15.2045C14.9403 15.6278 15.2017 15.9474 15.5369 16.1634C15.8722 16.3793 16.2599 16.4872 16.7003 16.4872C16.9474 16.4872 17.1761 16.4545 17.3864 16.3892C17.5994 16.3239 17.7884 16.2287 17.9531 16.1037C18.1179 15.9759 18.2543 15.821 18.3622 15.6392C18.473 15.4574 18.5497 15.25 18.5923 15.017L20.4588 15.0256C20.4105 15.4261 20.2898 15.8125 20.0966 16.1847C19.9063 16.554 19.6491 16.8849 19.3253 17.1776C19.0043 17.4673 18.6207 17.6974 18.1747 17.8679C17.7315 18.0355 17.2301 18.1193 16.6705 18.1193C15.892 18.1193 15.196 17.9432 14.5824 17.5909C13.9716 17.2386 13.4886 16.7287 13.1335 16.0611C12.7812 15.3935 12.6051 14.5852 12.6051 13.6364C12.6051 12.6847 12.7841 11.875 13.142 11.2074C13.5 10.5398 13.9858 10.0312 14.5994 9.68182C15.2131 9.32955 15.9034 9.15341 16.6705 9.15341C17.1761 9.15341 17.6449 9.22443 18.0767 9.36648C18.5114 9.50852 18.8963 9.71591 19.2315 9.98864C19.5668 10.2585 19.8395 10.5895 20.0497 10.9815C20.2628 11.3736 20.3991 11.8224 20.4588 12.3281ZM29.8018 13.6364C29.8018 14.5881 29.6214 15.3977 29.2607 16.0653C28.9027 16.733 28.4141 17.2429 27.7947 17.5952C27.1783 17.9446 26.4851 18.1193 25.7152 18.1193C24.9396 18.1193 24.2436 17.9432 23.6271 17.5909C23.0107 17.2386 22.5234 16.7287 22.1655 16.0611C21.8075 15.3935 21.6286 14.5852 21.6286 13.6364C21.6286 12.6847 21.8075 11.875 22.1655 11.2074C22.5234 10.5398 23.0107 10.0312 23.6271 9.68182C24.2436 9.32955 24.9396 9.15341 25.7152 9.15341C26.4851 9.15341 27.1783 9.32955 27.7947 9.68182C28.4141 10.0312 28.9027 10.5398 29.2607 11.2074C29.6214 11.875 29.8018 12.6847 29.8018 13.6364ZM27.9311 13.6364C27.9311 13.0199 27.8388 12.5 27.6541 12.0767C27.4723 11.6534 27.2152 11.3324 26.8828 11.1136C26.5504 10.8949 26.1612 10.7855 25.7152 10.7855C25.2692 10.7855 24.88 10.8949 24.5476 11.1136C24.2152 11.3324 23.9567 11.6534 23.772 12.0767C23.5902 12.5 23.4993 13.0199 23.4993 13.6364C23.4993 14.2528 23.5902 14.7727 23.772 15.196C23.9567 15.6193 24.2152 15.9403 24.5476 16.1591C24.88 16.3778 25.2692 16.4872 25.7152 16.4872C26.1612 16.4872 26.5504 16.3778 26.8828 16.1591C27.2152 15.9403 27.4723 15.6193 27.6541 15.196C27.8388 14.7727 27.9311 14.2528 27.9311 13.6364ZM34.2624 18H31.1687V9.27273H34.288C35.1658 9.27273 35.9215 9.44744 36.555 9.79688C37.1886 10.1435 37.6758 10.642 38.0167 11.2926C38.3604 11.9432 38.5323 12.7216 38.5323 13.6278C38.5323 14.5369 38.3604 15.3182 38.0167 15.9716C37.6758 16.625 37.1857 17.1264 36.5465 17.4759C35.9102 17.8253 35.1488 18 34.2624 18ZM33.0138 16.419H34.1857C34.7312 16.419 35.19 16.3224 35.5621 16.1293C35.9371 15.9332 36.2184 15.6307 36.4059 15.2216C36.5962 14.8097 36.6914 14.2784 36.6914 13.6278C36.6914 12.983 36.5962 12.456 36.4059 12.0469C36.2184 11.6378 35.9386 11.3366 35.5664 11.1435C35.1942 10.9503 34.7354 10.8537 34.19 10.8537H33.0138V16.419Z" fill="black"/>
</svg>
